<?xml version="1.0" standalone="no"?>
<!DOCTYPE svg PUBLIC "-//W3C//DTD SVG 20010904//EN" "http://www.w3.org/TR/2001/REC-SVG-20010904/DTD/svg10.dtd">
<svg xmlns="http://www.w3.org/2000/svg" version="1.0" width="180.000000pt" height="90.000000pt" viewBox="0 0 180.000000 90.000000" preserveAspectRatio="xMidYMid meet">
<metadata>
Created by potrace 1.16, written by Peter Selinger 2001-2019
<meta name="Producer" content="Online-Convert"/></metadata>
<g transform="translate(0.000000,90.000000) scale(0.100000,-0.100000)" fill="#000000" stroke="none">
<path d="M0 450 l0 -450 900 0 900 0 0 450 0 450 -900 0 -900 0 0 -450z m765 80 c-10 16 77 2 87 -14 5 -7 8 -4 8 8 0 15 5 17 33 13 17 -4 65 -9 105 -13 51 -5 72 -11 72 -20 0 -10 14 -14 49 -14 30 0 51 -5 54 -12 3 -8 6 -6 6 5 1 24 91 25 91 0 0 -15 1 -15 18 0 10 10 22 14 25 10 4 -3 7 -2 7 3 0 5 15 11 33 12 17 1 68 7 112 12 146 18 153 14 116 -55 -18 -34 -18 -36 0 -72 10 -20 16 -40 13 -44 -3 -5 0 -9 5 -9 6 0 11 -13 11 -30 0 -28 -2 -30 -40 -30 -22 0 -40 3 -40 8 0 4 -26 5 -57 4 -47 -3 -56 -1 -45 9 6 7 12 18 12 24 0 5 -5 2 -11 -7 -14 -24 -95 -24 -129 -1 -17 12 -25 13 -28 5 -5 -17 -179 -17 -185 1 -3 9 -8 9 -17 1 -16 -16 -50 -6 -50 15 -1 14 -2 14 -14 -1 -13 -18 -52 -26 -42 -9 4 5 -3 7 -14 4 -11 -3 -17 -9 -14 -14 3 -5 -9 -9 -27 -9 l-31 0 6 45 c5 29 4 45 -3 45 -6 0 -11 -20 -11 -45 l0 -45 -67 0 c-81 0 -121 9 -101 21 10 7 10 9 0 9 -8 0 -10 8 -6 25 4 14 2 25 -4 25 -6 0 -9 11 -8 25 2 13 -1 22 -6 19 -5 -3 -12 3 -15 15 -5 20 -33 30 -33 12 0 -21 13 -41 26 -41 17 0 19 -40 2 -41 -10 0 -10 -2 0 -6 6 -2 12 -18 12 -34 0 -27 -3 -29 -39 -29 -31 0 -40 4 -46 23 l-8 22 -4 -22 c-3 -15 -12 -24 -26 -24 -12 -1 -38 -3 -57 -4 -19 -2 -74 -6 -121 -9 l-87 -7 4 96 c2 53 7 101 10 107 4 7 2 8 -4 4 -7 -4 -12 0 -12 10 0 14 7 16 46 10 26 -3 71 -6 101 -6 52 0 55 -1 50 -22 -3 -13 1 -39 8 -58 8 -19 14 -29 14 -22 1 7 5 11 10 8 5 -4 7 3 4 14 -3 13 0 20 8 20 11 0 11 3 -1 11 -11 8 -12 12 -2 16 6 2 10 9 6 14 -3 5 4 9 15 9 10 0 21 4 23 9 2 5 39 12 83 16 44 4 82 9 84 11 2 2 13 -1 24 -7 15 -8 18 -8 12 1z"/>
</g>
</svg>
